<svg width="200" height="200" viewBox="0 0 200 200" xmlns="http://www.w3.org/2000/svg">
  <!-- Celebrating Bond Doge - Settlement Success -->
  <circle cx="100" cy="100" r="80" fill="#FF6B35" opacity="0.2"/>
  <circle cx="100" cy="100" r="70" fill="#FF6B35" stroke="#E64A19" stroke-width="3"/>
  <!-- Ears -->
  <ellipse cx="60" cy="50" rx="15" ry="25" fill="#FF6B35"/>
  <ellipse cx="140" cy="50" rx="15" ry="25" fill="#FF6B35"/>
  <!-- Eyes (happy closed) -->
  <path d="M 70 90 Q 80 85 90 90" stroke="#BF360C" stroke-width="3" fill="none"/>
  <path d="M 110 90 Q 120 85 130 90" stroke="#BF360C" stroke-width="3" fill="none"/>
  <!-- Nose -->
  <circle cx="100" cy="110" r="6" fill="#BF360C"/>
  <!-- Mouth (big smile) -->
  <path d="M 75 120 Q 100 145 125 120" stroke="#BF360C" stroke-width="3" fill="none"/>
  <!-- Confetti -->
  <rect x="45" y="40" width="5" height="5" fill="#FFD700" transform="rotate(15 47.5 42.5)"/>
  <rect x="155" y="40" width="5" height="5" fill="#8BC34A" transform="rotate(-15 157.5 42.5)"/>
  <circle cx="50" cy="70" r="3" fill="#FF6B35"/>
  <circle cx="150" cy="70" r="3" fill="#FFB74D"/>
  <rect x="40" y="130" width="5" height="5" fill="#9C27B0" transform="rotate(25 42.5 132.5)"/>
  <rect x="160" y="130" width="5" height="5" fill="#8BC34A" transform="rotate(-25 162.5 132.5)"/>
  <!-- Party hat -->
  <path d="M 85 35 L 100 10 L 115 35 Z" fill="#9C27B0" stroke="#7B1FA2" stroke-width="2"/>
  <circle cx="100" cy="10" r="4" fill="#FFD700"/>
  <!-- Placeholder text -->
  <text x="100" y="180" text-anchor="middle" font-family="Arial, sans-serif" font-size="12" fill="#E64A19">CELEBRATING</text>
</svg>
