<svg width="200" height="200" viewBox="0 0 200 200" xmlns="http://www.w3.org/2000/svg">
  <!-- Waving Bond Doge - Referral Invite -->
  <circle cx="100" cy="100" r="80" fill="#FF8A65" opacity="0.2"/>
  <circle cx="100" cy="100" r="70" fill="#FF8A65" stroke="#F4511E" stroke-width="3"/>
  <!-- Ears -->
  <ellipse cx="60" cy="50" rx="15" ry="25" fill="#FF8A65"/>
  <ellipse cx="140" cy="50" rx="15" ry="25" fill="#FF8A65"/>
  <!-- Eyes (friendly) -->
  <circle cx="80" cy="90" r="5" fill="#BF360C"/>
  <circle cx="120" cy="90" r="5" fill="#BF360C"/>
  <!-- Nose -->
  <circle cx="100" cy="110" r="6" fill="#BF360C"/>
  <!-- Mouth (friendly smile) -->
  <path d="M 85 125 Q 100 135 115 125" stroke="#BF360C" stroke-width="3" fill="none"/>
  <!-- Waving paw -->
  <ellipse cx="150" cy="100" rx="12" ry="18" fill="#FF8A65" transform="rotate(-30 150 100)"/>
  <path d="M 145 85 Q 150 75 155 70" stroke="#BF360C" stroke-width="2" fill="none"/>
  <path d="M 148 82 Q 153 72 158 67" stroke="#BF360C" stroke-width="2" fill="none"/>
  <path d="M 151 80 Q 156 70 161 65" stroke="#BF360C" stroke-width="2" fill="none"/>
  <!-- Wave lines -->
  <path d="M 165 75 Q 170 70 175 75" stroke="#FF8A65" stroke-width="2" fill="none"/>
  <path d="M 170 85 Q 175 80 180 85" stroke="#FF8A65" stroke-width="2" fill="none"/>
  <!-- Placeholder text -->
  <text x="100" y="180" text-anchor="middle" font-family="Arial, sans-serif" font-size="12" fill="#F4511E">WAVING</text>
</svg>
